<svg width="1440" height="401" fill="none" xmlns="http://www.w3.org/2000/svg"><path d="M537.513.5L-1731 400.5M581.957.5l-759.381 400M626.402.5l-392.317 400M670.846.5l-200.887 400M715.291.5l-62.559 400M759.735.5l62.559 400M804.18.5l200.89 400M848.624.5l392.316 400M893.069.5l759.381 400M937.513.5l2268.517 400M537.513.5h400M537.513.5h400M537.513.5h400M537.513.5h400M537.513.5h400M537.513.5h400M537.511.5h400.004M537.507.501h400.012M537.492.504h400.042M537.452.51h400.122M537.356.528h400.313M537.144.565h400.738M536.706.642H938.32M535.855.792h403.316M534.282 1.07h406.462M531.501 1.56h412.023M526.767 2.395h421.492M518.969 3.77h437.088M506.495 5.97h462.036M487.054 9.397h500.918M457.45 14.617h560.13M413.31 22.4h648.41M348.73 33.788h777.57M255.863 50.163h963.297M124.408 73.342H1350.62M-59 105.681h1593.03M-311.51 150.206h2098.05M-654.918 210.758H2129.94M-1116.66 292.176h3708.35M-1731 400.5h4937.03" stroke="#B3B3B3" stroke-opacity=".15"/></svg>