<svg width="48" height="48" fill="none" xmlns="http://www.w3.org/2000/svg"><circle cx="24" cy="24" r="24" fill="url(#prefix__paint0_linear_12_370)"/><path fill-rule="evenodd" clip-rule="evenodd" d="M24.322 38.914c-2.944 0-4.312-.431-6.69-2.158-1.505 1.943-6.268 3.46-6.476.863 0-1.95-.43-3.597-.917-5.395C9.66 30.008 9 27.54 9 23.964 9 15.424 15.977 9 24.244 9 32.517 9 39 15.741 39 24.044a14.853 14.853 0 01-4.276 10.484 14.724 14.724 0 01-10.402 4.386zm.122-22.533c-4.026-.208-7.163 2.59-7.858 6.98-.573 3.632.444 8.057 1.31 8.287.416.1 1.462-.748 2.114-1.403a7.43 7.43 0 003.639 1.302 7.644 7.644 0 005.467-1.941 7.711 7.711 0 002.549-5.232A7.718 7.718 0 0029.68 18.9a7.651 7.651 0 00-5.236-2.51v-.008z" fill="#fff"/><defs><linearGradient id="prefix__paint0_linear_12_370" x1="0" y1="24" x2="48" y2="24" gradientUnits="userSpaceOnUse"><stop stop-color="#365AFC"/><stop offset="1" stop-color="#9944DA"/></linearGradient></defs></svg>