<svg width="1441" height="1025" fill="none" xmlns="http://www.w3.org/2000/svg"><path d="M1440.5.5H.5v1024h1440V.5z" stroke="#B3B3B3" stroke-opacity=".2"/><path d="M1323.09 83.994H117.913v857.012H1323.09V83.994z" stroke="#B3B3B3" stroke-opacity=".2"/><path d="M1219.49 157.665H221.513v709.67h997.977v-709.67z" stroke="#B3B3B3" stroke-opacity=".2"/><path d="M1129.7 221.513H311.3v581.973h818.4V221.513z" stroke="#B3B3B3" stroke-opacity=".2"/><path d="M1053.73 275.539H387.273v473.922h666.457V275.539z" stroke="#B3B3B3" stroke-opacity=".2"/><path d="M991.566 319.741H449.433v385.517h542.133V319.741z" stroke="#B3B3B3" stroke-opacity=".2"/><path d="M943.22 354.121H497.78v316.758h445.44V354.121z" stroke="#B3B3B3" stroke-opacity=".2"/><path d="M908.686 378.678H532.313v267.643h376.373V378.678z" stroke="#B3B3B3" stroke-opacity=".2"/><path d="M887.966 393.412H553.033v238.175h334.933V393.412z" stroke="#B3B3B3" stroke-opacity=".2"/><path d="M881.06 398.324H559.94v228.352h321.12V398.324zM559.94 626.676L.5 1024.5M595.62 626.676L203.896 1024.5M631.3 626.676L370.429 1024.5M666.98 626.676L517.078 1024.5M702.66 626.676L653.715 1024.5M738.34 626.676l48.945 397.824M774.02 626.676L923.921 1024.5M809.7 626.676l260.87 397.824M845.38 626.676L1237.1 1024.5M881.06 626.676L1440.5 1024.5M559.94 398.324L.5.5M559.94 423.696L.5 145.137M559.94 449.069L.5 263.56M559.94 474.441L.5 367.845M559.94 499.814L.5 465.009M559.94 525.186L.5 559.991M559.94 550.559L.5 657.155M559.94 575.931L.5 761.439M559.94 601.304L.5 879.863M559.94 626.676L.5 1024.5M881.06 398.324L1440.5.5M845.38 398.324L1237.1.5M809.7 398.324L1070.57.5M774.02 398.324L923.921.5M738.34 398.324L787.284.5M702.66 398.324L653.715.5M666.98 398.324L517.078.5M631.3 398.324L370.429.5M595.62 398.324L203.896.5M559.94 398.324L.5.5M881.06 626.676L1440.5 1024.5M881.06 601.303l559.44 278.56M881.06 575.931l559.44 185.508M881.06 550.558l559.44 106.597M881.06 525.186l559.44 34.805M881.06 499.814l559.44-34.805M881.06 474.441l559.44-106.596M881.06 449.069L1440.5 263.56M881.06 423.696l559.44-278.559M881.06 398.324L1440.5.5" stroke="#B3B3B3" stroke-opacity=".2"/></svg>