<svg width="1441" height="1025" viewBox="0 0 1441 1025" fill="none" xmlns="http://www.w3.org/2000/svg">
<path d="M1440.5 0.5H0.5V1024.5H1440.5V0.5Z" stroke="#B3B3B3" stroke-opacity="0.2"/>
<path d="M1323.09 83.9939H117.913V941.006H1323.09V83.9939Z" stroke="#B3B3B3" stroke-opacity="0.2"/>
<path d="M1219.49 157.665H221.513V867.335H1219.49V157.665Z" stroke="#B3B3B3" stroke-opacity="0.2"/>
<path d="M1129.7 221.513H311.3V803.486H1129.7V221.513Z" stroke="#B3B3B3" stroke-opacity="0.2"/>
<path d="M1053.73 275.539H387.273V749.461H1053.73V275.539Z" stroke="#B3B3B3" stroke-opacity="0.2"/>
<path d="M991.566 319.741H449.433V705.258H991.566V319.741Z" stroke="#B3B3B3" stroke-opacity="0.2"/>
<path d="M943.22 354.121H497.78V670.879H943.22V354.121Z" stroke="#B3B3B3" stroke-opacity="0.2"/>
<path d="M908.686 378.678H532.313V646.321H908.686V378.678Z" stroke="#B3B3B3" stroke-opacity="0.2"/>
<path d="M887.966 393.412H553.033V631.587H887.966V393.412Z" stroke="#B3B3B3" stroke-opacity="0.2"/>
<path d="M881.06 398.324H559.94V626.676H881.06V398.324Z" stroke="#B3B3B3" stroke-opacity="0.2"/>
<path d="M559.94 626.676L0.500137 1024.5" stroke="#B3B3B3" stroke-opacity="0.2"/>
<path d="M595.62 626.676L203.896 1024.5" stroke="#B3B3B3" stroke-opacity="0.2"/>
<path d="M631.3 626.676L370.429 1024.5" stroke="#B3B3B3" stroke-opacity="0.2"/>
<path d="M666.98 626.676L517.078 1024.5" stroke="#B3B3B3" stroke-opacity="0.2"/>
<path d="M702.66 626.676L653.715 1024.5" stroke="#B3B3B3" stroke-opacity="0.2"/>
<path d="M738.34 626.676L787.285 1024.5" stroke="#B3B3B3" stroke-opacity="0.2"/>
<path d="M774.02 626.676L923.921 1024.5" stroke="#B3B3B3" stroke-opacity="0.2"/>
<path d="M809.7 626.676L1070.57 1024.5" stroke="#B3B3B3" stroke-opacity="0.2"/>
<path d="M845.38 626.676L1237.1 1024.5" stroke="#B3B3B3" stroke-opacity="0.2"/>
<path d="M881.06 626.676L1440.5 1024.5" stroke="#B3B3B3" stroke-opacity="0.2"/>
<path d="M559.94 398.324L0.499954 0.500032" stroke="#B3B3B3" stroke-opacity="0.2"/>
<path d="M559.94 423.696L0.499982 145.137" stroke="#B3B3B3" stroke-opacity="0.2"/>
<path d="M559.94 449.069L0.499949 263.56" stroke="#B3B3B3" stroke-opacity="0.2"/>
<path d="M559.94 474.441L0.499923 367.845" stroke="#B3B3B3" stroke-opacity="0.2"/>
<path d="M559.94 499.814L0.499986 465.009" stroke="#B3B3B3" stroke-opacity="0.2"/>
<path d="M559.94 525.186L0.499986 559.991" stroke="#B3B3B3" stroke-opacity="0.2"/>
<path d="M559.94 550.559L0.499923 657.155" stroke="#B3B3B3" stroke-opacity="0.2"/>
<path d="M559.94 575.931L0.499949 761.439" stroke="#B3B3B3" stroke-opacity="0.2"/>
<path d="M559.94 601.304L0.499982 879.863" stroke="#B3B3B3" stroke-opacity="0.2"/>
<path d="M559.94 626.676L0.499954 1024.5" stroke="#B3B3B3" stroke-opacity="0.2"/>
<path d="M881.06 398.324L1440.5 0.499971" stroke="#B3B3B3" stroke-opacity="0.2"/>
<path d="M845.38 398.324L1237.1 0.499997" stroke="#B3B3B3" stroke-opacity="0.2"/>
<path d="M809.7 398.324L1070.57 0.50002" stroke="#B3B3B3" stroke-opacity="0.2"/>
<path d="M774.02 398.324L923.921 0.499983" stroke="#B3B3B3" stroke-opacity="0.2"/>
<path d="M738.34 398.324L787.284 0.500001" stroke="#B3B3B3" stroke-opacity="0.2"/>
<path d="M702.66 398.324L653.715 0.500001" stroke="#B3B3B3" stroke-opacity="0.2"/>
<path d="M666.98 398.324L517.078 0.499983" stroke="#B3B3B3" stroke-opacity="0.2"/>
<path d="M631.3 398.324L370.429 0.50002" stroke="#B3B3B3" stroke-opacity="0.2"/>
<path d="M595.62 398.324L203.896 0.499997" stroke="#B3B3B3" stroke-opacity="0.2"/>
<path d="M559.94 398.324L0.499893 0.499971" stroke="#B3B3B3" stroke-opacity="0.2"/>
<path d="M881.06 626.676L1440.5 1024.5" stroke="#B3B3B3" stroke-opacity="0.2"/>
<path d="M881.06 601.303L1440.5 879.863" stroke="#B3B3B3" stroke-opacity="0.2"/>
<path d="M881.06 575.931L1440.5 761.439" stroke="#B3B3B3" stroke-opacity="0.2"/>
<path d="M881.06 550.558L1440.5 657.155" stroke="#B3B3B3" stroke-opacity="0.2"/>
<path d="M881.06 525.186L1440.5 559.991" stroke="#B3B3B3" stroke-opacity="0.2"/>
<path d="M881.06 499.814L1440.5 465.009" stroke="#B3B3B3" stroke-opacity="0.2"/>
<path d="M881.06 474.441L1440.5 367.845" stroke="#B3B3B3" stroke-opacity="0.2"/>
<path d="M881.06 449.069L1440.5 263.56" stroke="#B3B3B3" stroke-opacity="0.2"/>
<path d="M881.06 423.696L1440.5 145.137" stroke="#B3B3B3" stroke-opacity="0.2"/>
<path d="M881.06 398.324L1440.5 0.49991" stroke="#B3B3B3" stroke-opacity="0.2"/>
</svg>
