<svg xmlns="http://www.w3.org/2000/svg" viewBox="0 0 219 219" width="1000" height="1000" data-dot="3"><path fill="#fff" d="M0 0h219v219H0z"/><path d="M12 207v-9h9v9z"/><path clip-rule="evenodd" class="prefix__svgeye" d="M6 213h21v-21H6zm3-3v-15h15v15z"/><path d="M207 12v9h-9v-9z"/><path clip-rule="evenodd" class="prefix__svgeye" d="M213 6h-21v21h21zm-3 3v15h-15V9z"/><path d="M12 12h9v9h-9z"/><path clip-rule="evenodd" class="prefix__svgeye" d="M6 6v21h21V6zm3 3h15v15H9z"/><path d="M30 6h3v3h-3zM33 6h3v3h-3zM36 6h3v3h-3zM48 6h3v3h-3zM54 6h3v3h-3zM63 6h3v3h-3zM66 6h3v3h-3zM69 6h3v3h-3zM81 6h3v3h-3zM87 6h3v3h-3zM93 6h3v3h-3zM96 6h3v3h-3zM111 6h3v3h-3zM117 6h3v3h-3zM120 6h3v3h-3zM123 6h3v3h-3zM126 6h3v3h-3zM129 6h3v3h-3zM132 6h3v3h-3zM138 6h3v3h-3zM144 6h3v3h-3zM153 6h3v3h-3zM159 6h3v3h-3zM165 6h3v3h-3zM168 6h3v3h-3zM171 6h3v3h-3zM174 6h3v3h-3zM180 6h3v3h-3zM183 6h3v3h-3zM186 6h3v3h-3zM39 9h3v3h-3zM45 9h3v3h-3zM48 9h3v3h-3zM51 9h3v3h-3zM54 9h3v3h-3zM60 9h3v3h-3zM63 9h3v3h-3zM69 9h3v3h-3zM75 9h3v3h-3zM84 9h3v3h-3zM87 9h3v3h-3zM90 9h3v3h-3zM102 9h3v3h-3zM111 9h3v3h-3zM114 9h3v3h-3zM126 9h3v3h-3zM129 9h3v3h-3zM132 9h3v3h-3zM162 9h3v3h-3zM168 9h3v3h-3zM177 9h3v3h-3zM39 12h3v3h-3zM57 12h3v3h-3zM63 12h3v3h-3zM75 12h3v3h-3zM78 12h3v3h-3zM81 12h3v3h-3zM90 12h3v3h-3zM96 12h3v3h-3zM102 12h3v3h-3zM111 12h3v3h-3zM114 12h3v3h-3zM123 12h3v3h-3zM126 12h3v3h-3zM132 12h3v3h-3zM144 12h3v3h-3zM147 12h3v3h-3zM162 12h3v3h-3zM168 12h3v3h-3zM171 12h3v3h-3zM177 12h3v3h-3zM180 12h3v3h-3zM36 15h3v3h-3zM39 15h3v3h-3zM42 15h3v3h-3zM63 15h3v3h-3zM78 15h3v3h-3zM81 15h3v3h-3zM84 15h3v3h-3zM90 15h3v3h-3zM93 15h3v3h-3zM99 15h3v3h-3zM108 15h3v3h-3zM111 15h3v3h-3zM117 15h3v3h-3zM129 15h3v3h-3zM132 15h3v3h-3zM135 15h3v3h-3zM138 15h3v3h-3zM159 15h3v3h-3zM162 15h3v3h-3zM165 15h3v3h-3zM168 15h3v3h-3zM171 15h3v3h-3zM174 15h3v3h-3zM186 15h3v3h-3zM30 18h3v3h-3zM33 18h3v3h-3zM39 18h3v3h-3zM45 18h3v3h-3zM51 18h3v3h-3zM57 18h3v3h-3zM60 18h3v3h-3zM63 18h3v3h-3zM69 18h3v3h-3zM75 18h3v3h-3zM78 18h3v3h-3zM84 18h3v3h-3zM87 18h3v3h-3zM90 18h3v3h-3zM93 18h3v3h-3zM102 18h3v3h-3zM105 18h3v3h-3zM108 18h3v3h-3zM111 18h3v3h-3zM114 18h3v3h-3zM129 18h3v3h-3zM138 18h3v3h-3zM141 18h3v3h-3zM150 18h3v3h-3zM156 18h3v3h-3zM159 18h3v3h-3zM165 18h3v3h-3zM168 18h3v3h-3zM177 18h3v3h-3zM180 18h3v3h-3zM186 18h3v3h-3zM30 21h3v3h-3zM48 21h3v3h-3zM51 21h3v3h-3zM54 21h3v3h-3zM60 21h3v3h-3zM69 21h3v3h-3zM75 21h3v3h-3zM81 21h3v3h-3zM102 21h3v3h-3zM114 21h3v3h-3zM117 21h3v3h-3zM126 21h3v3h-3zM129 21h3v3h-3zM132 21h3v3h-3zM135 21h3v3h-3zM138 21h3v3h-3zM141 21h3v3h-3zM144 21h3v3h-3zM150 21h3v3h-3zM153 21h3v3h-3zM156 21h3v3h-3zM159 21h3v3h-3zM168 21h3v3h-3zM177 21h3v3h-3zM180 21h3v3h-3zM30 24h3v3h-3zM36 24h3v3h-3zM42 24h3v3h-3zM48 24h3v3h-3zM54 24h3v3h-3zM60 24h3v3h-3zM66 24h3v3h-3zM72 24h3v3h-3zM78 24h3v3h-3zM84 24h3v3h-3zM90 24h3v3h-3zM96 24h3v3h-3zM102 24h3v3h-3zM108 24h3v3h-3zM114 24h3v3h-3zM120 24h3v3h-3zM126 24h3v3h-3zM132 24h3v3h-3zM138 24h3v3h-3zM144 24h3v3h-3zM150 24h3v3h-3zM156 24h3v3h-3zM162 24h3v3h-3zM168 24h3v3h-3zM174 24h3v3h-3zM180 24h3v3h-3zM186 24h3v3h-3zM42 27h3v3h-3zM45 27h3v3h-3zM48 27h3v3h-3zM57 27h3v3h-3zM60 27h3v3h-3zM66 27h3v3h-3zM69 27h3v3h-3zM75 27h3v3h-3zM78 27h3v3h-3zM81 27h3v3h-3zM84 27h3v3h-3zM90 27h3v3h-3zM93 27h3v3h-3zM102 27h3v3h-3zM114 27h3v3h-3zM120 27h3v3h-3zM126 27h3v3h-3zM132 27h3v3h-3zM135 27h3v3h-3zM141 27h3v3h-3zM147 27h3v3h-3zM150 27h3v3h-3zM153 27h3v3h-3zM156 27h3v3h-3zM159 27h3v3h-3zM165 27h3v3h-3zM168 27h3v3h-3zM177 27h3v3h-3zM180 27h3v3h-3zM186 27h3v3h-3zM9 30h3v3H9zM12 30h3v3h-3zM15 30h3v3h-3zM18 30h3v3h-3zM21 30h3v3h-3zM24 30h3v3h-3zM27 30h3v3h-3zM33 30h3v3h-3zM36 30h3v3h-3zM39 30h3v3h-3zM45 30h3v3h-3zM48 30h3v3h-3zM51 30h3v3h-3zM54 30h3v3h-3zM60 30h3v3h-3zM63 30h3v3h-3zM78 30h3v3h-3zM81 30h3v3h-3zM90 30h3v3h-3zM93 30h3v3h-3zM96 30h3v3h-3zM102 30h3v3h-3zM105 30h3v3h-3zM108 30h3v3h-3zM111 30h3v3h-3zM114 30h3v3h-3zM132 30h3v3h-3zM141 30h3v3h-3zM147 30h3v3h-3zM150 30h3v3h-3zM168 30h3v3h-3zM171 30h3v3h-3zM177 30h3v3h-3zM180 30h3v3h-3zM195 30h3v3h-3zM198 30h3v3h-3zM210 30h3v3h-3zM6 33h3v3H6zM9 33h3v3H9zM21 33h3v3h-3zM30 33h3v3h-3zM36 33h3v3h-3zM39 33h3v3h-3zM48 33h3v3h-3zM51 33h3v3h-3zM54 33h3v3h-3zM69 33h3v3h-3zM72 33h3v3h-3zM75 33h3v3h-3zM78 33h3v3h-3zM81 33h3v3h-3zM87 33h3v3h-3zM111 33h3v3h-3zM135 33h3v3h-3zM141 33h3v3h-3zM144 33h3v3h-3zM159 33h3v3h-3zM162 33h3v3h-3zM165 33h3v3h-3zM168 33h3v3h-3zM183 33h3v3h-3zM186 33h3v3h-3zM189 33h3v3h-3zM195 33h3v3h-3zM198 33h3v3h-3zM204 33h3v3h-3zM207 33h3v3h-3zM6 36h3v3H6zM9 36h3v3H9zM12 36h3v3h-3zM15 36h3v3h-3zM18 36h3v3h-3zM21 36h3v3h-3zM24 36h3v3h-3zM30 36h3v3h-3zM39 36h3v3h-3zM42 36h3v3h-3zM45 36h3v3h-3zM51 36h3v3h-3zM57 36h3v3h-3zM60 36h3v3h-3zM63 36h3v3h-3zM66 36h3v3h-3zM69 36h3v3h-3zM72 36h3v3h-3zM75 36h3v3h-3zM78 36h3v3h-3zM81 36h3v3h-3zM84 36h3v3h-3zM87 36h3v3h-3zM96 36h3v3h-3zM99 36h3v3h-3zM111 36h3v3h-3zM114 36h3v3h-3zM120 36h3v3h-3zM129 36h3v3h-3zM153 36h3v3h-3zM156 36h3v3h-3zM159 36h3v3h-3zM162 36h3v3h-3zM165 36h3v3h-3zM171 36h3v3h-3zM177 36h3v3h-3zM189 36h3v3h-3zM195 36h3v3h-3zM198 36h3v3h-3zM201 36h3v3h-3zM204 36h3v3h-3zM207 36h3v3h-3zM210 36h3v3h-3zM6 39h3v3H6zM9 39h3v3H9zM12 39h3v3h-3zM18 39h3v3h-3zM21 39h3v3h-3zM30 39h3v3h-3zM36 39h3v3h-3zM45 39h3v3h-3zM48 39h3v3h-3zM60 39h3v3h-3zM63 39h3v3h-3zM66 39h3v3h-3zM69 39h3v3h-3zM72 39h3v3h-3zM75 39h3v3h-3zM81 39h3v3h-3zM90 39h3v3h-3zM93 39h3v3h-3zM99 39h3v3h-3zM102 39h3v3h-3zM120 39h3v3h-3zM123 39h3v3h-3zM129 39h3v3h-3zM138 39h3v3h-3zM144 39h3v3h-3zM147 39h3v3h-3zM150 39h3v3h-3zM156 39h3v3h-3zM171 39h3v3h-3zM177 39h3v3h-3zM198 39h3v3h-3zM9 42h3v3H9zM15 42h3v3h-3zM24 42h3v3h-3zM33 42h3v3h-3zM39 42h3v3h-3zM42 42h3v3h-3zM45 42h3v3h-3zM51 42h3v3h-3zM63 42h3v3h-3zM81 42h3v3h-3zM84 42h3v3h-3zM93 42h3v3h-3zM96 42h3v3h-3zM108 42h3v3h-3zM117 42h3v3h-3zM129 42h3v3h-3zM135 42h3v3h-3zM141 42h3v3h-3zM144 42h3v3h-3zM150 42h3v3h-3zM153 42h3v3h-3zM156 42h3v3h-3zM162 42h3v3h-3zM168 42h3v3h-3zM171 42h3v3h-3zM174 42h3v3h-3zM186 42h3v3h-3zM195 42h3v3h-3zM198 42h3v3h-3zM204 42h3v3h-3zM6 45h3v3H6zM15 45h3v3h-3zM21 45h3v3h-3zM27 45h3v3h-3zM30 45h3v3h-3zM39 45h3v3h-3zM45 45h3v3h-3zM51 45h3v3h-3zM54 45h3v3h-3zM63 45h3v3h-3zM66 45h3v3h-3zM72 45h3v3h-3zM75 45h3v3h-3zM78 45h3v3h-3zM81 45h3v3h-3zM87 45h3v3h-3zM102 45h3v3h-3zM111 45h3v3h-3zM117 45h3v3h-3zM123 45h3v3h-3zM129 45h3v3h-3zM132 45h3v3h-3zM135 45h3v3h-3zM138 45h3v3h-3zM144 45h3v3h-3zM147 45h3v3h-3zM150 45h3v3h-3zM153 45h3v3h-3zM159 45h3v3h-3zM162 45h3v3h-3zM165 45h3v3h-3zM168 45h3v3h-3zM171 45h3v3h-3zM177 45h3v3h-3zM183 45h3v3h-3zM186 45h3v3h-3zM195 45h3v3h-3zM204 45h3v3h-3zM207 45h3v3h-3zM210 45h3v3h-3zM6 48h3v3H6zM18 48h3v3h-3zM21 48h3v3h-3zM24 48h3v3h-3zM33 48h3v3h-3zM42 48h3v3h-3zM51 48h3v3h-3zM63 48h3v3h-3zM84 48h3v3h-3zM99 48h3v3h-3zM102 48h3v3h-3zM108 48h3v3h-3zM111 48h3v3h-3zM117 48h3v3h-3zM120 48h3v3h-3zM129 48h3v3h-3zM132 48h3v3h-3zM150 48h3v3h-3zM153 48h3v3h-3zM159 48h3v3h-3zM162 48h3v3h-3zM165 48h3v3h-3zM171 48h3v3h-3zM174 48h3v3h-3zM189 48h3v3h-3zM192 48h3v3h-3zM195 48h3v3h-3zM201 48h3v3h-3zM9 51h3v3H9zM15 51h3v3h-3zM21 51h3v3h-3zM27 51h3v3h-3zM30 51h3v3h-3zM39 51h3v3h-3zM45 51h3v3h-3zM48 51h3v3h-3zM51 51h3v3h-3zM54 51h3v3h-3zM66 51h3v3h-3zM69 51h3v3h-3zM75 51h3v3h-3zM78 51h3v3h-3zM87 51h3v3h-3zM96 51h3v3h-3zM102 51h3v3h-3zM126 51h3v3h-3zM129 51h3v3h-3zM132 51h3v3h-3zM138 51h3v3h-3zM150 51h3v3h-3zM165 51h3v3h-3zM168 51h3v3h-3zM171 51h3v3h-3zM174 51h3v3h-3zM177 51h3v3h-3zM180 51h3v3h-3zM189 51h3v3h-3zM195 51h3v3h-3zM201 51h3v3h-3zM204 51h3v3h-3zM210 51h3v3h-3zM6 54h3v3H6zM12 54h3v3h-3zM15 54h3v3h-3zM21 54h3v3h-3zM24 54h3v3h-3zM33 54h3v3h-3zM36 54h3v3h-3zM39 54h3v3h-3zM42 54h3v3h-3zM51 54h3v3h-3zM54 54h3v3h-3zM66 54h3v3h-3zM69 54h3v3h-3zM78 54h3v3h-3zM81 54h3v3h-3zM84 54h3v3h-3zM96 54h3v3h-3zM99 54h3v3h-3zM108 54h3v3h-3zM111 54h3v3h-3zM117 54h3v3h-3zM123 54h3v3h-3zM129 54h3v3h-3zM132 54h3v3h-3zM135 54h3v3h-3zM144 54h3v3h-3zM147 54h3v3h-3zM150 54h3v3h-3zM156 54h3v3h-3zM168 54h3v3h-3zM174 54h3v3h-3zM186 54h3v3h-3zM189 54h3v3h-3zM204 54h3v3h-3zM207 54h3v3h-3zM210 54h3v3h-3zM6 57h3v3H6zM15 57h3v3h-3zM27 57h3v3h-3zM39 57h3v3h-3zM57 57h3v3h-3zM63 57h3v3h-3zM66 57h3v3h-3zM69 57h3v3h-3zM72 57h3v3h-3zM75 57h3v3h-3zM87 57h3v3h-3zM90 57h3v3h-3zM105 57h3v3h-3zM108 57h3v3h-3zM114 57h3v3h-3zM123 57h3v3h-3zM126 57h3v3h-3zM129 57h3v3h-3zM135 57h3v3h-3zM141 57h3v3h-3zM153 57h3v3h-3zM168 57h3v3h-3zM183 57h3v3h-3zM186 57h3v3h-3zM189 57h3v3h-3zM204 57h3v3h-3zM207 57h3v3h-3zM12 60h3v3h-3zM15 60h3v3h-3zM18 60h3v3h-3zM21 60h3v3h-3zM24 60h3v3h-3zM27 60h3v3h-3zM33 60h3v3h-3zM36 60h3v3h-3zM39 60h3v3h-3zM42 60h3v3h-3zM45 60h3v3h-3zM48 60h3v3h-3zM57 60h3v3h-3zM66 60h3v3h-3zM69 60h3v3h-3zM72 60h3v3h-3zM75 60h3v3h-3zM81 60h3v3h-3zM87 60h3v3h-3zM90 60h3v3h-3zM93 60h3v3h-3zM117 60h3v3h-3zM129 60h3v3h-3zM132 60h3v3h-3zM144 60h3v3h-3zM150 60h3v3h-3zM156 60h3v3h-3zM159 60h3v3h-3zM165 60h3v3h-3zM177 60h3v3h-3zM183 60h3v3h-3zM186 60h3v3h-3zM189 60h3v3h-3zM195 60h3v3h-3zM198 60h3v3h-3zM201 60h3v3h-3zM204 60h3v3h-3zM207 60h3v3h-3zM210 60h3v3h-3zM6 63h3v3H6zM18 63h3v3h-3zM30 63h3v3h-3zM36 63h3v3h-3zM39 63h3v3h-3zM42 63h3v3h-3zM45 63h3v3h-3zM48 63h3v3h-3zM51 63h3v3h-3zM66 63h3v3h-3zM69 63h3v3h-3zM72 63h3v3h-3zM75 63h3v3h-3zM90 63h3v3h-3zM96 63h3v3h-3zM102 63h3v3h-3zM114 63h3v3h-3zM117 63h3v3h-3zM120 63h3v3h-3zM126 63h3v3h-3zM132 63h3v3h-3zM141 63h3v3h-3zM159 63h3v3h-3zM165 63h3v3h-3zM171 63h3v3h-3zM174 63h3v3h-3zM177 63h3v3h-3zM180 63h3v3h-3zM183 63h3v3h-3zM186 63h3v3h-3zM192 63h3v3h-3zM195 63h3v3h-3zM9 66h3v3H9zM12 66h3v3h-3zM18 66h3v3h-3zM24 66h3v3h-3zM42 66h3v3h-3zM57 66h3v3h-3zM60 66h3v3h-3zM75 66h3v3h-3zM78 66h3v3h-3zM87 66h3v3h-3zM90 66h3v3h-3zM99 66h3v3h-3zM102 66h3v3h-3zM120 66h3v3h-3zM123 66h3v3h-3zM126 66h3v3h-3zM129 66h3v3h-3zM132 66h3v3h-3zM135 66h3v3h-3zM141 66h3v3h-3zM144 66h3v3h-3zM150 66h3v3h-3zM162 66h3v3h-3zM177 66h3v3h-3zM180 66h3v3h-3zM183 66h3v3h-3zM192 66h3v3h-3zM195 66h3v3h-3zM198 66h3v3h-3zM204 66h3v3h-3zM6 69h3v3H6zM9 69h3v3H9zM15 69h3v3h-3zM18 69h3v3h-3zM27 69h3v3h-3zM30 69h3v3h-3zM33 69h3v3h-3zM36 69h3v3h-3zM39 69h3v3h-3zM42 69h3v3h-3zM45 69h3v3h-3zM48 69h3v3h-3zM54 69h3v3h-3zM57 69h3v3h-3zM72 69h3v3h-3zM78 69h3v3h-3zM81 69h3v3h-3zM93 69h3v3h-3zM99 69h3v3h-3zM108 69h3v3h-3zM114 69h3v3h-3zM117 69h3v3h-3zM120 69h3v3h-3zM123 69h3v3h-3zM135 69h3v3h-3zM138 69h3v3h-3zM153 69h3v3h-3zM159 69h3v3h-3zM162 69h3v3h-3zM165 69h3v3h-3zM174 69h3v3h-3zM189 69h3v3h-3zM204 69h3v3h-3zM15 72h3v3h-3zM21 72h3v3h-3zM24 72h3v3h-3zM27 72h3v3h-3zM33 72h3v3h-3zM57 72h3v3h-3zM60 72h3v3h-3zM63 72h3v3h-3zM66 72h3v3h-3zM69 72h3v3h-3zM72 72h3v3h-3zM75 72h3v3h-3zM78 72h3v3h-3zM81 72h3v3h-3zM84 72h3v3h-3zM90 72h3v3h-3zM93 72h3v3h-3zM99 72h3v3h-3zM102 72h3v3h-3zM108 72h3v3h-3zM111 72h3v3h-3zM114 72h3v3h-3zM123 72h3v3h-3zM132 72h3v3h-3zM138 72h3v3h-3zM141 72h3v3h-3zM153 72h3v3h-3zM156 72h3v3h-3zM162 72h3v3h-3zM168 72h3v3h-3zM174 72h3v3h-3zM177 72h3v3h-3zM186 72h3v3h-3zM189 72h3v3h-3zM195 72h3v3h-3zM204 72h3v3h-3zM207 72h3v3h-3zM210 72h3v3h-3zM6 75h3v3H6zM12 75h3v3h-3zM15 75h3v3h-3zM33 75h3v3h-3zM36 75h3v3h-3zM39 75h3v3h-3zM51 75h3v3h-3zM54 75h3v3h-3zM63 75h3v3h-3zM69 75h3v3h-3zM78 75h3v3h-3zM84 75h3v3h-3zM87 75h3v3h-3zM90 75h3v3h-3zM93 75h3v3h-3zM96 75h3v3h-3zM102 75h3v3h-3zM105 75h3v3h-3zM108 75h3v3h-3zM111 75h3v3h-3zM120 75h3v3h-3zM123 75h3v3h-3zM126 75h3v3h-3zM132 75h3v3h-3zM135 75h3v3h-3zM138 75h3v3h-3zM141 75h3v3h-3zM150 75h3v3h-3zM159 75h3v3h-3zM165 75h3v3h-3zM168 75h3v3h-3zM171 75h3v3h-3zM177 75h3v3h-3zM186 75h3v3h-3zM189 75h3v3h-3zM210 75h3v3h-3zM9 78h3v3H9zM15 78h3v3h-3zM24 78h3v3h-3zM27 78h3v3h-3zM30 78h3v3h-3zM39 78h3v3h-3zM42 78h3v3h-3zM48 78h3v3h-3zM51 78h3v3h-3zM66 78h3v3h-3zM75 78h3v3h-3zM84 78h3v3h-3zM93 78h3v3h-3zM96 78h3v3h-3zM99 78h3v3h-3zM105 78h3v3h-3zM114 78h3v3h-3zM117 78h3v3h-3zM123 78h3v3h-3zM129 78h3v3h-3zM141 78h3v3h-3zM147 78h3v3h-3zM150 78h3v3h-3zM153 78h3v3h-3zM156 78h3v3h-3zM171 78h3v3h-3zM177 78h3v3h-3zM183 78h3v3h-3zM186 78h3v3h-3zM189 78h3v3h-3zM198 78h3v3h-3zM201 78h3v3h-3zM207 78h3v3h-3zM210 78h3v3h-3zM9 81h3v3H9zM15 81h3v3h-3zM21 81h3v3h-3zM30 81h3v3h-3zM45 81h3v3h-3zM51 81h3v3h-3zM69 81h3v3h-3zM75 81h3v3h-3zM84 81h3v3h-3zM93 81h3v3h-3zM96 81h3v3h-3zM99 81h3v3h-3zM102 81h3v3h-3zM105 81h3v3h-3zM108 81h3v3h-3zM111 81h3v3h-3zM117 81h3v3h-3zM132 81h3v3h-3zM138 81h3v3h-3zM147 81h3v3h-3zM150 81h3v3h-3zM153 81h3v3h-3zM159 81h3v3h-3zM162 81h3v3h-3zM165 81h3v3h-3zM168 81h3v3h-3zM174 81h3v3h-3zM177 81h3v3h-3zM180 81h3v3h-3zM183 81h3v3h-3zM186 81h3v3h-3zM210 81h3v3h-3zM6 84h3v3H6zM9 84h3v3H9zM12 84h3v3h-3zM15 84h3v3h-3zM18 84h3v3h-3zM21 84h3v3h-3zM24 84h3v3h-3zM27 84h3v3h-3zM30 84h3v3h-3zM42 84h3v3h-3zM51 84h3v3h-3zM54 84h3v3h-3zM57 84h3v3h-3zM60 84h3v3h-3zM66 84h3v3h-3zM72 84h3v3h-3zM78 84h3v3h-3zM84 84h3v3h-3zM87 84h3v3h-3zM93 84h3v3h-3zM99 84h3v3h-3zM105 84h3v3h-3zM108 84h3v3h-3zM111 84h3v3h-3zM114 84h3v3h-3zM123 84h3v3h-3zM129 84h3v3h-3zM144 84h3v3h-3zM150 84h3v3h-3zM168 84h3v3h-3zM174 84h3v3h-3zM180 84h3v3h-3zM183 84h3v3h-3zM186 84h3v3h-3zM192 84h3v3h-3zM198 84h3v3h-3zM201 84h3v3h-3zM204 84h3v3h-3zM6 87h3v3H6zM9 87h3v3H9zM18 87h3v3h-3zM30 87h3v3h-3zM33 87h3v3h-3zM39 87h3v3h-3zM48 87h3v3h-3zM54 87h3v3h-3zM57 87h3v3h-3zM60 87h3v3h-3zM66 87h3v3h-3zM69 87h3v3h-3zM72 87h3v3h-3zM78 87h3v3h-3zM93 87h3v3h-3zM96 87h3v3h-3zM102 87h3v3h-3zM108 87h3v3h-3zM111 87h3v3h-3zM114 87h3v3h-3zM117 87h3v3h-3zM120 87h3v3h-3zM126 87h3v3h-3zM135 87h3v3h-3zM144 87h3v3h-3zM147 87h3v3h-3zM150 87h3v3h-3zM162 87h3v3h-3zM171 87h3v3h-3zM177 87h3v3h-3zM195 87h3v3h-3zM198 87h3v3h-3zM204 87h3v3h-3zM15 90h3v3h-3zM18 90h3v3h-3zM21 90h3v3h-3zM24 90h3v3h-3zM30 90h3v3h-3zM36 90h3v3h-3zM45 90h3v3h-3zM51 90h3v3h-3zM54 90h3v3h-3zM57 90h3v3h-3zM60 90h3v3h-3zM66 90h3v3h-3zM69 90h3v3h-3zM72 90h3v3h-3zM81 90h3v3h-3zM90 90h3v3h-3zM96 90h3v3h-3zM99 90h3v3h-3zM105 90h3v3h-3zM123 90h3v3h-3zM129 90h3v3h-3zM132 90h3v3h-3zM135 90h3v3h-3zM138 90h3v3h-3zM144 90h3v3h-3zM147 90h3v3h-3zM150 90h3v3h-3zM153 90h3v3h-3zM165 90h3v3h-3zM177 90h3v3h-3zM183 90h3v3h-3zM189 90h3v3h-3zM195 90h3v3h-3zM201 90h3v3h-3zM210 90h3v3h-3zM9 93h3v3H9zM15 93h3v3h-3zM21 93h3v3h-3zM27 93h3v3h-3zM30 93h3v3h-3zM39 93h3v3h-3zM42 93h3v3h-3zM45 93h3v3h-3zM51 93h3v3h-3zM60 93h3v3h-3zM63 93h3v3h-3zM66 93h3v3h-3zM69 93h3v3h-3zM81 93h3v3h-3zM99 93h3v3h-3zM102 93h3v3h-3zM114 93h3v3h-3zM126 93h3v3h-3zM129 93h3v3h-3zM132 93h3v3h-3zM138 93h3v3h-3zM141 93h3v3h-3zM147 93h3v3h-3zM159 93h3v3h-3zM165 93h3v3h-3zM171 93h3v3h-3zM180 93h3v3h-3zM198 93h3v3h-3zM204 93h3v3h-3zM207 93h3v3h-3zM210 93h3v3h-3zM6 96h3v3H6zM24 96h3v3h-3zM33 96h3v3h-3zM39 96h3v3h-3zM42 96h3v3h-3zM45 96h3v3h-3zM66 96h3v3h-3zM72 96h3v3h-3zM84 96h3v3h-3zM87 96h3v3h-3zM90 96h3v3h-3zM93 96h3v3h-3zM96 96h3v3h-3zM99 96h3v3h-3zM102 96h3v3h-3zM120 96h3v3h-3zM132 96h3v3h-3zM141 96h3v3h-3zM144 96h3v3h-3zM147 96h3v3h-3zM153 96h3v3h-3zM165 96h3v3h-3zM168 96h3v3h-3zM186 96h3v3h-3zM189 96h3v3h-3zM195 96h3v3h-3zM207 96h3v3h-3zM12 99h3v3h-3zM27 99h3v3h-3zM30 99h3v3h-3zM42 99h3v3h-3zM54 99h3v3h-3zM57 99h3v3h-3zM66 99h3v3h-3zM72 99h3v3h-3zM75 99h3v3h-3zM78 99h3v3h-3zM81 99h3v3h-3zM84 99h3v3h-3zM87 99h3v3h-3zM90 99h3v3h-3zM93 99h3v3h-3zM102 99h3v3h-3zM105 99h3v3h-3zM108 99h3v3h-3zM114 99h3v3h-3zM117 99h3v3h-3zM120 99h3v3h-3zM126 99h3v3h-3zM129 99h3v3h-3zM135 99h3v3h-3zM138 99h3v3h-3zM147 99h3v3h-3zM159 99h3v3h-3zM162 99h3v3h-3zM165 99h3v3h-3zM177 99h3v3h-3zM180 99h3v3h-3zM186 99h3v3h-3zM189 99h3v3h-3zM195 99h3v3h-3zM201 99h3v3h-3zM204 99h3v3h-3zM210 99h3v3h-3zM18 102h3v3h-3zM21 102h3v3h-3zM24 102h3v3h-3zM27 102h3v3h-3zM30 102h3v3h-3zM33 102h3v3h-3zM36 102h3v3h-3zM39 102h3v3h-3zM45 102h3v3h-3zM48 102h3v3h-3zM51 102h3v3h-3zM54 102h3v3h-3zM57 102h3v3h-3zM66 102h3v3h-3zM69 102h3v3h-3zM75 102h3v3h-3zM78 102h3v3h-3zM81 102h3v3h-3zM84 102h3v3h-3zM99 102h3v3h-3zM102 102h3v3h-3zM105 102h3v3h-3zM108 102h3v3h-3zM111 102h3v3h-3zM114 102h3v3h-3zM120 102h3v3h-3zM123 102h3v3h-3zM126 102h3v3h-3zM138 102h3v3h-3zM141 102h3v3h-3zM150 102h3v3h-3zM156 102h3v3h-3zM165 102h3v3h-3zM168 102h3v3h-3zM171 102h3v3h-3zM177 102h3v3h-3zM183 102h3v3h-3zM186 102h3v3h-3zM189 102h3v3h-3zM192 102h3v3h-3zM195 102h3v3h-3zM198 102h3v3h-3zM204 102h3v3h-3zM207 102h3v3h-3zM210 102h3v3h-3zM6 105h3v3H6zM15 105h3v3h-3zM18 105h3v3h-3zM30 105h3v3h-3zM42 105h3v3h-3zM48 105h3v3h-3zM57 105h3v3h-3zM63 105h3v3h-3zM69 105h3v3h-3zM72 105h3v3h-3zM75 105h3v3h-3zM81 105h3v3h-3zM84 105h3v3h-3zM90 105h3v3h-3zM93 105h3v3h-3zM99 105h3v3h-3zM102 105h3v3h-3zM114 105h3v3h-3zM120 105h3v3h-3zM123 105h3v3h-3zM129 105h3v3h-3zM132 105h3v3h-3zM141 105h3v3h-3zM147 105h3v3h-3zM153 105h3v3h-3zM168 105h3v3h-3zM174 105h3v3h-3zM177 105h3v3h-3zM186 105h3v3h-3zM198 105h3v3h-3zM204 105h3v3h-3zM207 105h3v3h-3zM9 108h3v3H9zM15 108h3v3h-3zM18 108h3v3h-3zM24 108h3v3h-3zM30 108h3v3h-3zM33 108h3v3h-3zM39 108h3v3h-3zM42 108h3v3h-3zM45 108h3v3h-3zM57 108h3v3h-3zM60 108h3v3h-3zM69 108h3v3h-3zM72 108h3v3h-3zM75 108h3v3h-3zM78 108h3v3h-3zM84 108h3v3h-3zM87 108h3v3h-3zM90 108h3v3h-3zM93 108h3v3h-3zM96 108h3v3h-3zM102 108h3v3h-3zM108 108h3v3h-3zM114 108h3v3h-3zM117 108h3v3h-3zM120 108h3v3h-3zM123 108h3v3h-3zM141 108h3v3h-3zM168 108h3v3h-3zM171 108h3v3h-3zM174 108h3v3h-3zM177 108h3v3h-3zM183 108h3v3h-3zM186 108h3v3h-3zM192 108h3v3h-3zM198 108h3v3h-3zM207 108h3v3h-3zM18 111h3v3h-3zM30 111h3v3h-3zM39 111h3v3h-3zM42 111h3v3h-3zM45 111h3v3h-3zM51 111h3v3h-3zM54 111h3v3h-3zM57 111h3v3h-3zM63 111h3v3h-3zM66 111h3v3h-3zM69 111h3v3h-3zM75 111h3v3h-3zM81 111h3v3h-3zM87 111h3v3h-3zM96 111h3v3h-3zM102 111h3v3h-3zM114 111h3v3h-3zM120 111h3v3h-3zM129 111h3v3h-3zM132 111h3v3h-3zM144 111h3v3h-3zM147 111h3v3h-3zM162 111h3v3h-3zM168 111h3v3h-3zM174 111h3v3h-3zM183 111h3v3h-3zM186 111h3v3h-3zM198 111h3v3h-3zM201 111h3v3h-3zM204 111h3v3h-3zM207 111h3v3h-3zM18 114h3v3h-3zM21 114h3v3h-3zM24 114h3v3h-3zM27 114h3v3h-3zM30 114h3v3h-3zM33 114h3v3h-3zM54 114h3v3h-3zM57 114h3v3h-3zM69 114h3v3h-3zM72 114h3v3h-3zM75 114h3v3h-3zM81 114h3v3h-3zM84 114h3v3h-3zM93 114h3v3h-3zM96 114h3v3h-3zM102 114h3v3h-3zM105 114h3v3h-3zM108 114h3v3h-3zM111 114h3v3h-3zM114 114h3v3h-3zM117 114h3v3h-3zM126 114h3v3h-3zM129 114h3v3h-3zM132 114h3v3h-3zM135 114h3v3h-3zM141 114h3v3h-3zM144 114h3v3h-3zM159 114h3v3h-3zM165 114h3v3h-3zM168 114h3v3h-3zM171 114h3v3h-3zM180 114h3v3h-3zM186 114h3v3h-3zM189 114h3v3h-3zM192 114h3v3h-3zM195 114h3v3h-3zM198 114h3v3h-3zM201 114h3v3h-3zM207 114h3v3h-3zM9 117h3v3H9zM15 117h3v3h-3zM21 117h3v3h-3zM27 117h3v3h-3zM30 117h3v3h-3zM33 117h3v3h-3zM36 117h3v3h-3zM39 117h3v3h-3zM42 117h3v3h-3zM51 117h3v3h-3zM57 117h3v3h-3zM60 117h3v3h-3zM63 117h3v3h-3zM75 117h3v3h-3zM96 117h3v3h-3zM99 117h3v3h-3zM111 117h3v3h-3zM120 117h3v3h-3zM123 117h3v3h-3zM126 117h3v3h-3zM129 117h3v3h-3zM132 117h3v3h-3zM138 117h3v3h-3zM144 117h3v3h-3zM150 117h3v3h-3zM156 117h3v3h-3zM159 117h3v3h-3zM174 117h3v3h-3zM180 117h3v3h-3zM183 117h3v3h-3zM186 117h3v3h-3zM189 117h3v3h-3zM201 117h3v3h-3zM207 117h3v3h-3zM210 117h3v3h-3zM18 120h3v3h-3zM24 120h3v3h-3zM39 120h3v3h-3zM45 120h3v3h-3zM51 120h3v3h-3zM54 120h3v3h-3zM66 120h3v3h-3zM72 120h3v3h-3zM78 120h3v3h-3zM87 120h3v3h-3zM90 120h3v3h-3zM93 120h3v3h-3zM96 120h3v3h-3zM99 120h3v3h-3zM105 120h3v3h-3zM108 120h3v3h-3zM114 120h3v3h-3zM120 120h3v3h-3zM123 120h3v3h-3zM138 120h3v3h-3zM141 120h3v3h-3zM150 120h3v3h-3zM153 120h3v3h-3zM156 120h3v3h-3zM162 120h3v3h-3zM168 120h3v3h-3zM174 120h3v3h-3zM186 120h3v3h-3zM189 120h3v3h-3zM195 120h3v3h-3zM198 120h3v3h-3zM9 123h3v3H9zM12 123h3v3h-3zM36 123h3v3h-3zM42 123h3v3h-3zM45 123h3v3h-3zM54 123h3v3h-3zM63 123h3v3h-3zM69 123h3v3h-3zM75 123h3v3h-3zM78 123h3v3h-3zM84 123h3v3h-3zM87 123h3v3h-3zM93 123h3v3h-3zM99 123h3v3h-3zM102 123h3v3h-3zM111 123h3v3h-3zM123 123h3v3h-3zM129 123h3v3h-3zM135 123h3v3h-3zM147 123h3v3h-3zM150 123h3v3h-3zM153 123h3v3h-3zM159 123h3v3h-3zM171 123h3v3h-3zM174 123h3v3h-3zM180 123h3v3h-3zM186 123h3v3h-3zM195 123h3v3h-3zM201 123h3v3h-3zM204 123h3v3h-3zM15 126h3v3h-3zM18 126h3v3h-3zM21 126h3v3h-3zM24 126h3v3h-3zM33 126h3v3h-3zM39 126h3v3h-3zM48 126h3v3h-3zM63 126h3v3h-3zM69 126h3v3h-3zM72 126h3v3h-3zM78 126h3v3h-3zM84 126h3v3h-3zM87 126h3v3h-3zM90 126h3v3h-3zM99 126h3v3h-3zM102 126h3v3h-3zM108 126h3v3h-3zM114 126h3v3h-3zM117 126h3v3h-3zM120 126h3v3h-3zM135 126h3v3h-3zM138 126h3v3h-3zM141 126h3v3h-3zM144 126h3v3h-3zM147 126h3v3h-3zM156 126h3v3h-3zM165 126h3v3h-3zM168 126h3v3h-3zM171 126h3v3h-3zM177 126h3v3h-3zM186 126h3v3h-3zM189 126h3v3h-3zM192 126h3v3h-3zM195 126h3v3h-3zM201 126h3v3h-3zM15 129h3v3h-3zM30 129h3v3h-3zM36 129h3v3h-3zM42 129h3v3h-3zM57 129h3v3h-3zM63 129h3v3h-3zM69 129h3v3h-3zM78 129h3v3h-3zM84 129h3v3h-3zM96 129h3v3h-3zM99 129h3v3h-3zM102 129h3v3h-3zM105 129h3v3h-3zM108 129h3v3h-3zM111 129h3v3h-3zM114 129h3v3h-3zM117 129h3v3h-3zM120 129h3v3h-3zM129 129h3v3h-3zM138 129h3v3h-3zM153 129h3v3h-3zM159 129h3v3h-3zM165 129h3v3h-3zM168 129h3v3h-3zM177 129h3v3h-3zM186 129h3v3h-3zM192 129h3v3h-3zM198 129h3v3h-3zM204 129h3v3h-3zM207 129h3v3h-3zM6 132h3v3H6zM9 132h3v3H9zM12 132h3v3h-3zM18 132h3v3h-3zM21 132h3v3h-3zM24 132h3v3h-3zM27 132h3v3h-3zM30 132h3v3h-3zM33 132h3v3h-3zM42 132h3v3h-3zM45 132h3v3h-3zM48 132h3v3h-3zM60 132h3v3h-3zM69 132h3v3h-3zM72 132h3v3h-3zM78 132h3v3h-3zM81 132h3v3h-3zM93 132h3v3h-3zM108 132h3v3h-3zM111 132h3v3h-3zM114 132h3v3h-3zM120 132h3v3h-3zM123 132h3v3h-3zM126 132h3v3h-3zM132 132h3v3h-3zM138 132h3v3h-3zM141 132h3v3h-3zM162 132h3v3h-3zM165 132h3v3h-3zM168 132h3v3h-3zM171 132h3v3h-3zM174 132h3v3h-3zM180 132h3v3h-3zM186 132h3v3h-3zM195 132h3v3h-3zM198 132h3v3h-3zM201 132h3v3h-3zM204 132h3v3h-3zM207 132h3v3h-3zM210 132h3v3h-3zM15 135h3v3h-3zM39 135h3v3h-3zM48 135h3v3h-3zM66 135h3v3h-3zM69 135h3v3h-3zM87 135h3v3h-3zM96 135h3v3h-3zM102 135h3v3h-3zM111 135h3v3h-3zM120 135h3v3h-3zM123 135h3v3h-3zM132 135h3v3h-3zM144 135h3v3h-3zM147 135h3v3h-3zM156 135h3v3h-3zM168 135h3v3h-3zM189 135h3v3h-3zM192 135h3v3h-3zM198 135h3v3h-3zM204 135h3v3h-3zM6 138h3v3H6zM12 138h3v3h-3zM15 138h3v3h-3zM21 138h3v3h-3zM24 138h3v3h-3zM33 138h3v3h-3zM54 138h3v3h-3zM57 138h3v3h-3zM60 138h3v3h-3zM69 138h3v3h-3zM78 138h3v3h-3zM84 138h3v3h-3zM87 138h3v3h-3zM93 138h3v3h-3zM96 138h3v3h-3zM99 138h3v3h-3zM102 138h3v3h-3zM114 138h3v3h-3zM117 138h3v3h-3zM126 138h3v3h-3zM129 138h3v3h-3zM132 138h3v3h-3zM138 138h3v3h-3zM162 138h3v3h-3zM168 138h3v3h-3zM171 138h3v3h-3zM198 138h3v3h-3zM201 138h3v3h-3zM204 138h3v3h-3zM210 138h3v3h-3zM12 141h3v3h-3zM15 141h3v3h-3zM51 141h3v3h-3zM54 141h3v3h-3zM57 141h3v3h-3zM63 141h3v3h-3zM66 141h3v3h-3zM69 141h3v3h-3zM72 141h3v3h-3zM75 141h3v3h-3zM81 141h3v3h-3zM84 141h3v3h-3zM87 141h3v3h-3zM90 141h3v3h-3zM93 141h3v3h-3zM96 141h3v3h-3zM99 141h3v3h-3zM102 141h3v3h-3zM114 141h3v3h-3zM120 141h3v3h-3zM123 141h3v3h-3zM126 141h3v3h-3zM132 141h3v3h-3zM135 141h3v3h-3zM144 141h3v3h-3zM150 141h3v3h-3zM153 141h3v3h-3zM156 141h3v3h-3zM159 141h3v3h-3zM171 141h3v3h-3zM183 141h3v3h-3zM189 141h3v3h-3zM201 141h3v3h-3zM204 141h3v3h-3zM207 141h3v3h-3zM6 144h3v3H6zM9 144h3v3H9zM18 144h3v3h-3zM24 144h3v3h-3zM27 144h3v3h-3zM30 144h3v3h-3zM33 144h3v3h-3zM42 144h3v3h-3zM45 144h3v3h-3zM48 144h3v3h-3zM60 144h3v3h-3zM69 144h3v3h-3zM72 144h3v3h-3zM81 144h3v3h-3zM84 144h3v3h-3zM93 144h3v3h-3zM96 144h3v3h-3zM102 144h3v3h-3zM105 144h3v3h-3zM126 144h3v3h-3zM129 144h3v3h-3zM132 144h3v3h-3zM150 144h3v3h-3zM153 144h3v3h-3zM159 144h3v3h-3zM165 144h3v3h-3zM171 144h3v3h-3zM174 144h3v3h-3zM177 144h3v3h-3zM186 144h3v3h-3zM192 144h3v3h-3zM195 144h3v3h-3zM198 144h3v3h-3zM207 144h3v3h-3zM210 144h3v3h-3zM6 147h3v3H6zM18 147h3v3h-3zM27 147h3v3h-3zM33 147h3v3h-3zM36 147h3v3h-3zM45 147h3v3h-3zM54 147h3v3h-3zM57 147h3v3h-3zM69 147h3v3h-3zM72 147h3v3h-3zM81 147h3v3h-3zM87 147h3v3h-3zM90 147h3v3h-3zM93 147h3v3h-3zM96 147h3v3h-3zM108 147h3v3h-3zM111 147h3v3h-3zM117 147h3v3h-3zM132 147h3v3h-3zM135 147h3v3h-3zM141 147h3v3h-3zM147 147h3v3h-3zM153 147h3v3h-3zM159 147h3v3h-3zM165 147h3v3h-3zM168 147h3v3h-3zM177 147h3v3h-3zM195 147h3v3h-3zM201 147h3v3h-3zM204 147h3v3h-3zM207 147h3v3h-3zM6 150h3v3H6zM9 150h3v3H9zM12 150h3v3h-3zM21 150h3v3h-3zM24 150h3v3h-3zM27 150h3v3h-3zM30 150h3v3h-3zM36 150h3v3h-3zM42 150h3v3h-3zM45 150h3v3h-3zM54 150h3v3h-3zM69 150h3v3h-3zM84 150h3v3h-3zM90 150h3v3h-3zM96 150h3v3h-3zM99 150h3v3h-3zM102 150h3v3h-3zM105 150h3v3h-3zM123 150h3v3h-3zM129 150h3v3h-3zM135 150h3v3h-3zM141 150h3v3h-3zM150 150h3v3h-3zM153 150h3v3h-3zM165 150h3v3h-3zM168 150h3v3h-3zM171 150h3v3h-3zM183 150h3v3h-3zM186 150h3v3h-3zM195 150h3v3h-3zM204 150h3v3h-3zM207 150h3v3h-3zM210 150h3v3h-3zM9 153h3v3H9zM27 153h3v3h-3zM36 153h3v3h-3zM42 153h3v3h-3zM45 153h3v3h-3zM54 153h3v3h-3zM57 153h3v3h-3zM63 153h3v3h-3zM69 153h3v3h-3zM72 153h3v3h-3zM81 153h3v3h-3zM84 153h3v3h-3zM93 153h3v3h-3zM99 153h3v3h-3zM105 153h3v3h-3zM117 153h3v3h-3zM120 153h3v3h-3zM129 153h3v3h-3zM132 153h3v3h-3zM135 153h3v3h-3zM141 153h3v3h-3zM144 153h3v3h-3zM159 153h3v3h-3zM165 153h3v3h-3zM168 153h3v3h-3zM171 153h3v3h-3zM174 153h3v3h-3zM183 153h3v3h-3zM192 153h3v3h-3zM195 153h3v3h-3zM207 153h3v3h-3zM12 156h3v3h-3zM24 156h3v3h-3zM30 156h3v3h-3zM45 156h3v3h-3zM54 156h3v3h-3zM57 156h3v3h-3zM66 156h3v3h-3zM72 156h3v3h-3zM78 156h3v3h-3zM81 156h3v3h-3zM87 156h3v3h-3zM99 156h3v3h-3zM105 156h3v3h-3zM108 156h3v3h-3zM120 156h3v3h-3zM123 156h3v3h-3zM132 156h3v3h-3zM135 156h3v3h-3zM147 156h3v3h-3zM153 156h3v3h-3zM156 156h3v3h-3zM168 156h3v3h-3zM174 156h3v3h-3zM177 156h3v3h-3zM180 156h3v3h-3zM183 156h3v3h-3zM186 156h3v3h-3zM189 156h3v3h-3zM192 156h3v3h-3zM207 156h3v3h-3zM15 159h3v3h-3zM18 159h3v3h-3zM21 159h3v3h-3zM30 159h3v3h-3zM42 159h3v3h-3zM45 159h3v3h-3zM48 159h3v3h-3zM51 159h3v3h-3zM66 159h3v3h-3zM72 159h3v3h-3zM75 159h3v3h-3zM78 159h3v3h-3zM84 159h3v3h-3zM93 159h3v3h-3zM102 159h3v3h-3zM114 159h3v3h-3zM117 159h3v3h-3zM120 159h3v3h-3zM123 159h3v3h-3zM126 159h3v3h-3zM132 159h3v3h-3zM135 159h3v3h-3zM141 159h3v3h-3zM147 159h3v3h-3zM150 159h3v3h-3zM180 159h3v3h-3zM186 159h3v3h-3zM189 159h3v3h-3zM204 159h3v3h-3zM210 159h3v3h-3zM24 162h3v3h-3zM27 162h3v3h-3zM33 162h3v3h-3zM45 162h3v3h-3zM51 162h3v3h-3zM63 162h3v3h-3zM72 162h3v3h-3zM81 162h3v3h-3zM87 162h3v3h-3zM96 162h3v3h-3zM99 162h3v3h-3zM102 162h3v3h-3zM111 162h3v3h-3zM120 162h3v3h-3zM129 162h3v3h-3zM132 162h3v3h-3zM141 162h3v3h-3zM147 162h3v3h-3zM153 162h3v3h-3zM162 162h3v3h-3zM165 162h3v3h-3zM168 162h3v3h-3zM174 162h3v3h-3zM177 162h3v3h-3zM189 162h3v3h-3zM192 162h3v3h-3zM195 162h3v3h-3zM201 162h3v3h-3zM210 162h3v3h-3zM6 165h3v3H6zM12 165h3v3h-3zM18 165h3v3h-3zM30 165h3v3h-3zM45 165h3v3h-3zM48 165h3v3h-3zM51 165h3v3h-3zM63 165h3v3h-3zM66 165h3v3h-3zM72 165h3v3h-3zM75 165h3v3h-3zM78 165h3v3h-3zM84 165h3v3h-3zM87 165h3v3h-3zM93 165h3v3h-3zM99 165h3v3h-3zM102 165h3v3h-3zM117 165h3v3h-3zM126 165h3v3h-3zM135 165h3v3h-3zM141 165h3v3h-3zM153 165h3v3h-3zM156 165h3v3h-3zM159 165h3v3h-3zM162 165h3v3h-3zM165 165h3v3h-3zM168 165h3v3h-3zM171 165h3v3h-3zM177 165h3v3h-3zM183 165h3v3h-3zM189 165h3v3h-3zM204 165h3v3h-3zM207 165h3v3h-3zM15 168h3v3h-3zM18 168h3v3h-3zM24 168h3v3h-3zM27 168h3v3h-3zM30 168h3v3h-3zM45 168h3v3h-3zM48 168h3v3h-3zM51 168h3v3h-3zM54 168h3v3h-3zM57 168h3v3h-3zM60 168h3v3h-3zM72 168h3v3h-3zM75 168h3v3h-3zM84 168h3v3h-3zM96 168h3v3h-3zM99 168h3v3h-3zM108 168h3v3h-3zM114 168h3v3h-3zM117 168h3v3h-3zM120 168h3v3h-3zM126 168h3v3h-3zM132 168h3v3h-3zM141 168h3v3h-3zM147 168h3v3h-3zM153 168h3v3h-3zM159 168h3v3h-3zM168 168h3v3h-3zM180 168h3v3h-3zM183 168h3v3h-3zM189 168h3v3h-3zM195 168h3v3h-3zM198 168h3v3h-3zM204 168h3v3h-3zM207 168h3v3h-3zM210 168h3v3h-3zM9 171h3v3H9zM12 171h3v3h-3zM27 171h3v3h-3zM30 171h3v3h-3zM33 171h3v3h-3zM36 171h3v3h-3zM54 171h3v3h-3zM72 171h3v3h-3zM87 171h3v3h-3zM90 171h3v3h-3zM96 171h3v3h-3zM102 171h3v3h-3zM105 171h3v3h-3zM111 171h3v3h-3zM117 171h3v3h-3zM120 171h3v3h-3zM123 171h3v3h-3zM126 171h3v3h-3zM129 171h3v3h-3zM141 171h3v3h-3zM150 171h3v3h-3zM156 171h3v3h-3zM159 171h3v3h-3zM165 171h3v3h-3zM168 171h3v3h-3zM171 171h3v3h-3zM198 171h3v3h-3zM207 171h3v3h-3zM6 174h3v3H6zM18 174h3v3h-3zM24 174h3v3h-3zM27 174h3v3h-3zM33 174h3v3h-3zM36 174h3v3h-3zM39 174h3v3h-3zM54 174h3v3h-3zM60 174h3v3h-3zM69 174h3v3h-3zM78 174h3v3h-3zM90 174h3v3h-3zM96 174h3v3h-3zM99 174h3v3h-3zM102 174h3v3h-3zM105 174h3v3h-3zM108 174h3v3h-3zM135 174h3v3h-3zM138 174h3v3h-3zM141 174h3v3h-3zM144 174h3v3h-3zM150 174h3v3h-3zM156 174h3v3h-3zM159 174h3v3h-3zM165 174h3v3h-3zM171 174h3v3h-3zM198 174h3v3h-3zM201 174h3v3h-3zM207 174h3v3h-3zM210 174h3v3h-3zM6 177h3v3H6zM12 177h3v3h-3zM15 177h3v3h-3zM18 177h3v3h-3zM21 177h3v3h-3zM27 177h3v3h-3zM30 177h3v3h-3zM48 177h3v3h-3zM54 177h3v3h-3zM60 177h3v3h-3zM63 177h3v3h-3zM66 177h3v3h-3zM84 177h3v3h-3zM87 177h3v3h-3zM93 177h3v3h-3zM102 177h3v3h-3zM108 177h3v3h-3zM111 177h3v3h-3zM114 177h3v3h-3zM117 177h3v3h-3zM120 177h3v3h-3zM123 177h3v3h-3zM129 177h3v3h-3zM138 177h3v3h-3zM144 177h3v3h-3zM150 177h3v3h-3zM165 177h3v3h-3zM168 177h3v3h-3zM174 177h3v3h-3zM195 177h3v3h-3zM204 177h3v3h-3zM207 177h3v3h-3zM210 177h3v3h-3zM6 180h3v3H6zM12 180h3v3h-3zM18 180h3v3h-3zM21 180h3v3h-3zM24 180h3v3h-3zM48 180h3v3h-3zM54 180h3v3h-3zM57 180h3v3h-3zM60 180h3v3h-3zM63 180h3v3h-3zM66 180h3v3h-3zM72 180h3v3h-3zM75 180h3v3h-3zM78 180h3v3h-3zM87 180h3v3h-3zM93 180h3v3h-3zM99 180h3v3h-3zM105 180h3v3h-3zM111 180h3v3h-3zM120 180h3v3h-3zM129 180h3v3h-3zM132 180h3v3h-3zM135 180h3v3h-3zM138 180h3v3h-3zM147 180h3v3h-3zM150 180h3v3h-3zM156 180h3v3h-3zM162 180h3v3h-3zM174 180h3v3h-3zM177 180h3v3h-3zM189 180h3v3h-3zM192 180h3v3h-3zM201 180h3v3h-3zM204 180h3v3h-3zM210 180h3v3h-3zM6 183h3v3H6zM30 183h3v3h-3zM33 183h3v3h-3zM36 183h3v3h-3zM42 183h3v3h-3zM45 183h3v3h-3zM48 183h3v3h-3zM51 183h3v3h-3zM54 183h3v3h-3zM60 183h3v3h-3zM66 183h3v3h-3zM69 183h3v3h-3zM72 183h3v3h-3zM87 183h3v3h-3zM93 183h3v3h-3zM99 183h3v3h-3zM105 183h3v3h-3zM108 183h3v3h-3zM114 183h3v3h-3zM132 183h3v3h-3zM135 183h3v3h-3zM138 183h3v3h-3zM141 183h3v3h-3zM150 183h3v3h-3zM153 183h3v3h-3zM165 183h3v3h-3zM168 183h3v3h-3zM171 183h3v3h-3zM174 183h3v3h-3zM180 183h3v3h-3zM183 183h3v3h-3zM186 183h3v3h-3zM189 183h3v3h-3zM201 183h3v3h-3zM6 186h3v3H6zM15 186h3v3h-3zM18 186h3v3h-3zM24 186h3v3h-3zM33 186h3v3h-3zM36 186h3v3h-3zM39 186h3v3h-3zM63 186h3v3h-3zM75 186h3v3h-3zM81 186h3v3h-3zM87 186h3v3h-3zM96 186h3v3h-3zM99 186h3v3h-3zM102 186h3v3h-3zM105 186h3v3h-3zM108 186h3v3h-3zM111 186h3v3h-3zM114 186h3v3h-3zM135 186h3v3h-3zM147 186h3v3h-3zM153 186h3v3h-3zM156 186h3v3h-3zM159 186h3v3h-3zM162 186h3v3h-3zM168 186h3v3h-3zM174 186h3v3h-3zM177 186h3v3h-3zM180 186h3v3h-3zM186 186h3v3h-3zM189 186h3v3h-3zM192 186h3v3h-3zM195 186h3v3h-3zM198 186h3v3h-3zM201 186h3v3h-3zM204 186h3v3h-3zM30 189h3v3h-3zM33 189h3v3h-3zM36 189h3v3h-3zM42 189h3v3h-3zM54 189h3v3h-3zM57 189h3v3h-3zM63 189h3v3h-3zM75 189h3v3h-3zM81 189h3v3h-3zM87 189h3v3h-3zM90 189h3v3h-3zM93 189h3v3h-3zM96 189h3v3h-3zM99 189h3v3h-3zM102 189h3v3h-3zM114 189h3v3h-3zM117 189h3v3h-3zM123 189h3v3h-3zM126 189h3v3h-3zM129 189h3v3h-3zM132 189h3v3h-3zM135 189h3v3h-3zM138 189h3v3h-3zM141 189h3v3h-3zM144 189h3v3h-3zM153 189h3v3h-3zM159 189h3v3h-3zM165 189h3v3h-3zM168 189h3v3h-3zM180 189h3v3h-3zM186 189h3v3h-3zM198 189h3v3h-3zM201 189h3v3h-3zM204 189h3v3h-3zM30 192h3v3h-3zM36 192h3v3h-3zM39 192h3v3h-3zM42 192h3v3h-3zM45 192h3v3h-3zM48 192h3v3h-3zM51 192h3v3h-3zM57 192h3v3h-3zM63 192h3v3h-3zM66 192h3v3h-3zM75 192h3v3h-3zM78 192h3v3h-3zM84 192h3v3h-3zM90 192h3v3h-3zM93 192h3v3h-3zM96 192h3v3h-3zM102 192h3v3h-3zM108 192h3v3h-3zM114 192h3v3h-3zM120 192h3v3h-3zM126 192h3v3h-3zM132 192h3v3h-3zM135 192h3v3h-3zM138 192h3v3h-3zM141 192h3v3h-3zM147 192h3v3h-3zM159 192h3v3h-3zM165 192h3v3h-3zM177 192h3v3h-3zM186 192h3v3h-3zM192 192h3v3h-3zM198 192h3v3h-3zM201 192h3v3h-3zM204 192h3v3h-3zM207 192h3v3h-3zM30 195h3v3h-3zM39 195h3v3h-3zM42 195h3v3h-3zM51 195h3v3h-3zM54 195h3v3h-3zM60 195h3v3h-3zM63 195h3v3h-3zM66 195h3v3h-3zM69 195h3v3h-3zM75 195h3v3h-3zM81 195h3v3h-3zM84 195h3v3h-3zM90 195h3v3h-3zM93 195h3v3h-3zM102 195h3v3h-3zM114 195h3v3h-3zM117 195h3v3h-3zM120 195h3v3h-3zM126 195h3v3h-3zM132 195h3v3h-3zM138 195h3v3h-3zM141 195h3v3h-3zM144 195h3v3h-3zM147 195h3v3h-3zM150 195h3v3h-3zM153 195h3v3h-3zM159 195h3v3h-3zM171 195h3v3h-3zM180 195h3v3h-3zM183 195h3v3h-3zM186 195h3v3h-3zM198 195h3v3h-3zM201 195h3v3h-3zM204 195h3v3h-3zM207 195h3v3h-3zM210 195h3v3h-3zM30 198h3v3h-3zM39 198h3v3h-3zM45 198h3v3h-3zM48 198h3v3h-3zM51 198h3v3h-3zM54 198h3v3h-3zM57 198h3v3h-3zM69 198h3v3h-3zM72 198h3v3h-3zM75 198h3v3h-3zM78 198h3v3h-3zM84 198h3v3h-3zM93 198h3v3h-3zM96 198h3v3h-3zM99 198h3v3h-3zM102 198h3v3h-3zM105 198h3v3h-3zM108 198h3v3h-3zM111 198h3v3h-3zM114 198h3v3h-3zM117 198h3v3h-3zM123 198h3v3h-3zM132 198h3v3h-3zM135 198h3v3h-3zM147 198h3v3h-3zM150 198h3v3h-3zM153 198h3v3h-3zM156 198h3v3h-3zM171 198h3v3h-3zM174 198h3v3h-3zM177 198h3v3h-3zM180 198h3v3h-3zM186 198h3v3h-3zM189 198h3v3h-3zM192 198h3v3h-3zM195 198h3v3h-3zM198 198h3v3h-3zM204 198h3v3h-3zM207 198h3v3h-3zM210 198h3v3h-3zM30 201h3v3h-3zM36 201h3v3h-3zM39 201h3v3h-3zM42 201h3v3h-3zM45 201h3v3h-3zM48 201h3v3h-3zM57 201h3v3h-3zM60 201h3v3h-3zM63 201h3v3h-3zM69 201h3v3h-3zM75 201h3v3h-3zM84 201h3v3h-3zM87 201h3v3h-3zM90 201h3v3h-3zM93 201h3v3h-3zM96 201h3v3h-3zM99 201h3v3h-3zM102 201h3v3h-3zM111 201h3v3h-3zM114 201h3v3h-3zM123 201h3v3h-3zM126 201h3v3h-3zM135 201h3v3h-3zM141 201h3v3h-3zM147 201h3v3h-3zM150 201h3v3h-3zM153 201h3v3h-3zM162 201h3v3h-3zM165 201h3v3h-3zM168 201h3v3h-3zM177 201h3v3h-3zM186 201h3v3h-3zM189 201h3v3h-3zM195 201h3v3h-3zM204 201h3v3h-3zM30 204h3v3h-3zM33 204h3v3h-3zM39 204h3v3h-3zM42 204h3v3h-3zM51 204h3v3h-3zM54 204h3v3h-3zM60 204h3v3h-3zM75 204h3v3h-3zM93 204h3v3h-3zM99 204h3v3h-3zM108 204h3v3h-3zM111 204h3v3h-3zM120 204h3v3h-3zM129 204h3v3h-3zM138 204h3v3h-3zM144 204h3v3h-3zM150 204h3v3h-3zM156 204h3v3h-3zM159 204h3v3h-3zM165 204h3v3h-3zM168 204h3v3h-3zM174 204h3v3h-3zM180 204h3v3h-3zM186 204h3v3h-3zM195 204h3v3h-3zM204 204h3v3h-3zM30 207h3v3h-3zM36 207h3v3h-3zM42 207h3v3h-3zM45 207h3v3h-3zM51 207h3v3h-3zM54 207h3v3h-3zM57 207h3v3h-3zM60 207h3v3h-3zM63 207h3v3h-3zM72 207h3v3h-3zM75 207h3v3h-3zM78 207h3v3h-3zM81 207h3v3h-3zM87 207h3v3h-3zM99 207h3v3h-3zM102 207h3v3h-3zM108 207h3v3h-3zM120 207h3v3h-3zM129 207h3v3h-3zM132 207h3v3h-3zM135 207h3v3h-3zM138 207h3v3h-3zM141 207h3v3h-3zM144 207h3v3h-3zM147 207h3v3h-3zM168 207h3v3h-3zM171 207h3v3h-3zM174 207h3v3h-3zM180 207h3v3h-3zM186 207h3v3h-3zM189 207h3v3h-3zM195 207h3v3h-3zM198 207h3v3h-3zM201 207h3v3h-3zM33 210h3v3h-3zM36 210h3v3h-3zM45 210h3v3h-3zM51 210h3v3h-3zM60 210h3v3h-3zM81 210h3v3h-3zM87 210h3v3h-3zM93 210h3v3h-3zM108 210h3v3h-3zM114 210h3v3h-3zM126 210h3v3h-3zM129 210h3v3h-3zM144 210h3v3h-3zM150 210h3v3h-3zM153 210h3v3h-3zM156 210h3v3h-3zM159 210h3v3h-3zM165 210h3v3h-3zM168 210h3v3h-3zM177 210h3v3h-3zM180 210h3v3h-3zM186 210h3v3h-3zM195 210h3v3h-3zM198 210h3v3h-3zM201 210h3v3h-3zM204 210h3v3h-3zM207 210h3v3h-3z"/></svg>