<svg width="1440" height="443" fill="none" xmlns="http://www.w3.org/2000/svg"><path d="M0 44.208L75.789 66.31l75.791-51.576 75.789 125.257 75.789-58.946 75.789 29.473 75.791 22.104h75.789L606.316 0l75.788 147.358 75.792-44.208L833.684 0l75.789 125.254 75.789-88.416 75.788-14.734 75.79 66.311 75.79 51.577 75.79-132.623 75.79 88.416 75.79 7.365M0 257.877l75.789-7.366 75.791-88.415 75.789-7.369 75.789 58.942h75.789l75.791-36.838 75.789 36.838 75.789 22.104 75.788 22.104 75.792 36.842 75.788-44.208 75.789-58.946 75.789-29.469 75.788 58.942 75.79-58.942 75.79 132.623 75.79-132.623 75.79 51.573 75.79-36.838M0 346.292l75.789-51.573 75.791 51.573h75.789l75.789 95.785 75.789-147.358 75.791 95.781 75.789-66.312 75.789 66.312 75.788-22.104 75.792 36.842 75.788-36.842 75.789 66.311 75.789-125.253 75.788 103.15 75.79 14.738 75.79-66.311 75.79 58.942 75.79-58.942 75.79-58.946" stroke="#FAFAFA" stroke-opacity=".15"/></svg>