<svg width="1440" height="1024" viewBox="0 0 1440 1024" fill="none" xmlns="http://www.w3.org/2000/svg">
<g clip-path="url(#clip0_102_132)">
<path d="M352.036 596.21H246.231V711.027H352.036V596.21Z" fill="url(#paint0_radial_102_132)" fill-opacity="0.06"/>
<path d="M775.253 251.759H669.448V366.577H775.253V251.759Z" fill="url(#paint1_radial_102_132)" fill-opacity="0.06"/>
<path d="M669.448 940.659H563.644V1055.48H669.448V940.659Z" fill="url(#paint2_radial_102_132)" fill-opacity="0.06"/>
<path d="M1092.67 711.026H986.862V825.842H1092.67V711.026Z" fill="url(#paint3_radial_102_132)" fill-opacity="0.06"/>
<path d="M775.254 596.21H669.449V711.027H775.254V596.21Z" fill="url(#paint4_radial_102_132)" fill-opacity="0.06"/>
<path d="M34.6208 -207.507H-71.1838V-92.6891M34.6208 -207.507V-92.6891M34.6208 -207.507H140.425M-71.1838 -92.6891H34.6208M-71.1838 -92.6891V22.1265M34.6208 -92.6891H140.425M34.6208 -92.6891V22.1265M140.425 -207.507V-92.6891M140.425 -207.507H246.23M-71.1838 22.1265H34.6208M-71.1838 22.1265V136.943M140.425 -92.6891H246.23M140.425 -92.6891V22.1265M34.6208 22.1265H140.425M34.6208 22.1265V136.943M246.23 -207.507V-92.6891M246.23 -207.507H352.034M246.23 -92.6891H352.034M246.23 -92.6891V22.1265M140.425 22.1265H246.23M140.425 22.1265V136.943M34.6208 136.943H-71.1838M34.6208 136.943H140.425M34.6208 136.943V251.759M-71.1838 136.943V251.759M352.034 -207.507V-92.6891M352.034 -207.507H457.839M352.034 -92.6891H457.839M352.034 -92.6891V22.1265M246.23 22.1265H352.034M246.23 22.1265V136.943M140.425 136.943H246.23M140.425 136.943V251.759M457.839 -207.507V-92.6891M457.839 -207.507H563.643M457.839 -92.6891H563.643M457.839 -92.6891V22.1265M352.034 22.1265H457.839M352.034 22.1265V136.943M246.23 136.943H352.034M246.23 136.943V251.759M563.643 -207.507V-92.6891M563.643 -207.507H669.448M563.643 -92.6891H669.448M563.643 -92.6891V22.1265M457.839 22.1265H563.643M457.839 22.1265V136.943M352.034 136.943H457.839M352.034 136.943V251.759M669.448 -207.507V-92.6891M669.448 -207.507H775.253M669.448 -92.6891H775.253M669.448 -92.6891V22.1265M563.643 22.1265H669.448M563.643 22.1265V136.943M457.839 136.943H563.643M457.839 136.943V251.759M775.253 -207.507V-92.6891M775.253 -207.507H881.057M775.253 -92.6891H881.057M775.253 -92.6891V22.1265M669.448 22.1265H775.253M669.448 22.1265V136.943M563.643 136.943H669.448M563.643 136.943V251.759M881.057 -207.507V-92.6891M881.057 -207.507H986.863M881.057 -92.6891H986.863M881.057 -92.6891V22.1265M775.253 22.1265H881.057M775.253 22.1265V136.943M669.448 136.943H775.253M669.448 136.943V251.759M986.863 -207.507V-92.6891M986.863 -207.507H1092.67M986.863 -92.6891H1092.67M986.863 -92.6891V22.1265M881.057 22.1265H986.863M881.057 22.1265V136.943M775.253 136.943H881.057M775.253 136.943V251.759M1092.67 -207.507V-92.6891M1092.67 -207.507H1198.47M1092.67 -92.6891H1198.47M1092.67 -92.6891V22.1265M986.863 22.1265H1092.67M986.863 22.1265V136.943M881.057 136.943H986.863M881.057 136.943V251.759M1198.47 -207.507V-92.6891M1198.47 -207.507H1304.27M1198.47 -92.6891H1304.27M1198.47 -92.6891V22.1265M1092.67 22.1265H1198.47M1092.67 22.1265V136.943M986.863 136.943H1092.67M986.863 136.943V251.759M1304.27 -207.507V-92.6891M1304.27 -207.507H1410.08M1304.27 -92.6891H1410.08M1304.27 -92.6891V22.1265M1198.47 22.1265H1304.27M1198.47 22.1265V136.943M1092.67 136.943H1198.47M1092.67 136.943V251.759M1410.08 -207.507V-92.6891M1410.08 -207.507H1515.89V-92.6891M1410.08 -92.6891H1515.89M1410.08 -92.6891V22.1265M1304.27 22.1265H1410.08M1304.27 22.1265V136.943M1198.47 136.943H1304.27M1198.47 136.943V251.759M1515.89 -92.6891V22.1265M1410.08 22.1265H1515.89M1410.08 22.1265V136.943M1304.27 136.943H1410.08M1304.27 136.943V251.759M1515.89 22.1265V136.943M1410.08 136.943H1515.89M1410.08 136.943V251.759M1515.89 136.943V251.759M34.6208 251.759H-71.1838M34.6208 251.759H140.425M34.6208 251.759V366.577M-71.1838 251.759V366.577M140.425 251.759H246.23M140.425 251.759V366.577M246.23 251.759H352.034M246.23 251.759V366.577M352.034 251.759H457.839M352.034 251.759V366.577M457.839 251.759H563.643M457.839 251.759V366.577M563.643 251.759H669.448M563.643 251.759V366.577M669.448 251.759H775.253M669.448 251.759V366.577M775.253 251.759H881.057M775.253 251.759V366.577M881.057 251.759H986.863M881.057 251.759V366.577M986.863 251.759H1092.67M986.863 251.759V366.577M1092.67 251.759H1198.47M1092.67 251.759V366.577M1198.47 251.759H1304.27M1198.47 251.759V366.577M1304.27 251.759H1410.08M1304.27 251.759V366.577M1410.08 251.759H1515.89M1410.08 251.759V366.577M1515.89 251.759V366.577M34.6208 366.577H-71.1838M34.6208 366.577H140.425M34.6208 366.577V481.394M-71.1838 366.577V481.394M140.425 366.577H246.23M140.425 366.577V481.394M246.23 366.577H352.034M246.23 366.577V481.394M352.034 366.577H457.839M352.034 366.577V481.394M457.839 366.577H563.643M457.839 366.577V481.394M563.643 366.577H669.448M563.643 366.577V481.394M669.448 366.577H775.253M669.448 366.577V481.394M775.253 366.577H881.057M775.253 366.577V481.394M881.057 366.577H986.863M881.057 366.577V481.394M986.863 366.577H1092.67M986.863 366.577V481.394M1092.67 366.577H1198.47M1092.67 366.577V481.394M1198.47 366.577H1304.27M1198.47 366.577V481.394M1304.27 366.577H1410.08M1304.27 366.577V481.394M1410.08 366.577H1515.89M1410.08 366.577V481.394M1515.89 366.577V481.394M34.6208 481.394H-71.1838M34.6208 481.394H140.425M34.6208 481.394V596.209M-71.1838 481.394V596.209M140.425 481.394H246.23M140.425 481.394V596.209M246.23 481.394H352.034M246.23 481.394V596.209M352.034 481.394H457.839M352.034 481.394V596.209M457.839 481.394H563.643M457.839 481.394V596.209M563.643 481.394H669.448M563.643 481.394V596.209M669.448 481.394H775.253M669.448 481.394V596.209M775.253 481.394H881.057M775.253 481.394V596.209M881.057 481.394H986.863M881.057 481.394V596.209M986.863 481.394H1092.67M986.863 481.394V596.209M1092.67 481.394H1198.47M1092.67 481.394V596.209M1198.47 481.394H1304.27M1198.47 481.394V596.209M1304.27 481.394H1410.08M1304.27 481.394V596.209M1410.08 481.394H1515.89M1410.08 481.394V596.209M1515.89 481.394V596.209M34.6208 596.209H-71.1838M34.6208 596.209H140.425M34.6208 596.209V711.026M-71.1838 596.209V711.026M140.425 596.209H246.23M140.425 596.209V711.026M246.23 596.209H352.034M246.23 596.209V711.026M352.034 596.209H457.839M352.034 596.209V711.026M457.839 596.209H563.643M457.839 596.209V711.026M563.643 596.209H669.448M563.643 596.209V711.026M669.448 596.209H775.253M669.448 596.209V711.026M775.253 596.209H881.057M775.253 596.209V711.026M881.057 596.209H986.863M881.057 596.209V711.026M986.863 596.209H1092.67M986.863 596.209V711.026M1092.67 596.209H1198.47M1092.67 596.209V711.026M1198.47 596.209H1304.27M1198.47 596.209V711.026M1304.27 596.209H1410.08M1304.27 596.209V711.026M1410.08 596.209H1515.89M1410.08 596.209V711.026M1515.89 596.209V711.026M34.6208 711.026H-71.1838M34.6208 711.026H140.425M34.6208 711.026V825.842M-71.1838 711.026V825.842M140.425 711.026H246.23M140.425 711.026V825.842M246.23 711.026H352.034M246.23 711.026V825.842M352.034 711.026H457.839M352.034 711.026V825.842M457.839 711.026H563.643M457.839 711.026V825.842M563.643 711.026H669.448M563.643 711.026V825.842M669.448 711.026H775.253M669.448 711.026V825.842M775.253 711.026H881.057M775.253 711.026V825.842M881.057 711.026H986.863M881.057 711.026V825.842M986.863 711.026H1092.67M986.863 711.026V825.842M1092.67 711.026H1198.47M1092.67 711.026V825.842M1198.47 711.026H1304.27M1198.47 711.026V825.842M1304.27 711.026H1410.08M1304.27 711.026V825.842M1410.08 711.026H1515.89M1410.08 711.026V825.842M1515.89 711.026V825.842M34.6208 825.842H-71.1838M34.6208 825.842H140.425M34.6208 825.842V940.66M-71.1838 825.842V940.66M140.425 825.842H246.23M140.425 825.842V940.66M246.23 825.842H352.034M246.23 825.842V940.66M352.034 825.842H457.839M352.034 825.842V940.66M457.839 825.842H563.643M457.839 825.842V940.66M563.643 825.842H669.448M563.643 825.842V940.66M669.448 825.842H775.253M669.448 825.842V940.66M775.253 825.842H881.057M775.253 825.842V940.66M881.057 825.842H986.863M881.057 825.842V940.66M986.863 825.842H1092.67M986.863 825.842V940.66M1092.67 825.842H1198.47M1092.67 825.842V940.66M1198.47 825.842H1304.27M1198.47 825.842V940.66M1304.27 825.842H1410.08M1304.27 825.842V940.66M1410.08 825.842H1515.89M1410.08 825.842V940.66M1515.89 825.842V940.66M34.6208 940.66H-71.1838M34.6208 940.66H140.425M34.6208 940.66V1055.48M-71.1838 940.66V1055.48M140.425 940.66H246.23M140.425 940.66V1055.48M246.23 940.66H352.034M246.23 940.66V1055.48M352.034 940.66H457.839M352.034 940.66V1055.48M457.839 940.66H563.643M457.839 940.66V1055.48M563.643 940.66H669.448M563.643 940.66V1055.48M669.448 940.66H775.253M669.448 940.66V1055.48M775.253 940.66H881.057M775.253 940.66V1055.48M881.057 940.66H986.863M881.057 940.66V1055.48M986.863 940.66H1092.67M986.863 940.66V1055.48M1092.67 940.66H1198.47M1092.67 940.66V1055.48M1198.47 940.66H1304.27M1198.47 940.66V1055.48M1304.27 940.66H1410.08M1304.27 940.66V1055.48M1410.08 940.66H1515.89M1410.08 940.66V1055.48M1515.89 940.66V1055.48M34.6208 1055.48H-71.1838M34.6208 1055.48H140.425M34.6208 1055.48V1170.29M-71.1838 1055.48V1170.29M140.425 1055.48H246.23M140.425 1055.48V1170.29M246.23 1055.48H352.034M246.23 1055.48V1170.29M352.034 1055.48H457.839M352.034 1055.48V1170.29M457.839 1055.48H563.643M457.839 1055.48V1170.29M563.643 1055.48H669.448M563.643 1055.48V1170.29M669.448 1055.48H775.253M669.448 1055.48V1170.29M775.253 1055.48H881.057M775.253 1055.48V1170.29M881.057 1055.48H986.863M881.057 1055.48V1170.29M986.863 1055.48H1092.67M986.863 1055.48V1170.29M1092.67 1055.48H1198.47M1092.67 1055.48V1170.29M1198.47 1055.48H1304.27M1198.47 1055.48V1170.29M1304.27 1055.48H1410.08M1304.27 1055.48V1170.29M1410.08 1055.48H1515.89M1410.08 1055.48V1170.29M1515.89 1055.48V1170.29M34.6208 1170.29H-71.1838M34.6208 1170.29H140.425M34.6208 1170.29V1285.11M-71.1838 1170.29V1285.11M140.425 1170.29H246.23M140.425 1170.29V1285.11M246.23 1170.29H352.034M246.23 1170.29V1285.11M352.034 1170.29H457.839M352.034 1170.29V1285.11M457.839 1170.29H563.643M457.839 1170.29V1285.11M563.643 1170.29H669.448M563.643 1170.29V1285.11M669.448 1170.29H775.253M669.448 1170.29V1285.11M775.253 1170.29H881.057M775.253 1170.29V1285.11M881.057 1170.29H986.863M881.057 1170.29V1285.11M986.863 1170.29H1092.67M986.863 1170.29V1285.11M1092.67 1170.29H1198.47M1092.67 1170.29V1285.11M1198.47 1170.29H1304.27M1198.47 1170.29V1285.11M1304.27 1170.29H1410.08M1304.27 1170.29V1285.11M1410.08 1170.29H1515.89M1410.08 1170.29V1285.11M1515.89 1170.29V1285.11M34.6208 1285.11H-71.1838M34.6208 1285.11H140.425M34.6208 1285.11V1399.93M-71.1838 1285.11V1399.93M140.425 1285.11H246.23M140.425 1285.11V1399.93M246.23 1285.11H352.034M246.23 1285.11V1399.93M352.034 1285.11H457.839M352.034 1285.11V1399.93M457.839 1285.11H563.643M457.839 1285.11V1399.93M563.643 1285.11H669.448M563.643 1285.11V1399.93M669.448 1285.11H775.253M669.448 1285.11V1399.93M775.253 1285.11H881.057M775.253 1285.11V1399.93M881.057 1285.11H986.863M881.057 1285.11V1399.93M986.863 1285.11H1092.67M986.863 1285.11V1399.93M1092.67 1285.11H1198.47M1092.67 1285.11V1399.93M1198.47 1285.11H1304.27M1198.47 1285.11V1399.93M1304.27 1285.11H1410.08M1304.27 1285.11V1399.93M1410.08 1285.11H1515.89M1410.08 1285.11V1399.93M1515.89 1285.11V1399.93M34.6208 1399.93H-71.1838M34.6208 1399.93H140.425M34.6208 1399.93V1514.74M-71.1838 1399.93V1514.74H34.6208M140.425 1399.93H246.23M140.425 1399.93V1514.74M246.23 1399.93H352.034M246.23 1399.93V1514.74M352.034 1399.93H457.839M352.034 1399.93V1514.74M457.839 1399.93H563.643M457.839 1399.93V1514.74M563.643 1399.93H669.448M563.643 1399.93V1514.74M669.448 1399.93H775.253M669.448 1399.93V1514.74M775.253 1399.93H881.057M775.253 1399.93V1514.74M881.057 1399.93H986.863M881.057 1399.93V1514.74M986.863 1399.93H1092.67M986.863 1399.93V1514.74M1092.67 1399.93H1198.47M1092.67 1399.93V1514.74M1198.47 1399.93H1304.27M1198.47 1399.93V1514.74M1304.27 1399.93H1410.08M1304.27 1399.93V1514.74M1410.08 1399.93H1515.89M1410.08 1399.93V1514.74M1515.89 1399.93V1514.74H1410.08M34.6208 1514.74H140.425M140.425 1514.74H246.23M246.23 1514.74H352.034M352.034 1514.74H457.839M457.839 1514.74H563.643M563.643 1514.74H669.448M669.448 1514.74H775.253M775.253 1514.74H881.057M881.057 1514.74H986.863M986.863 1514.74H1092.67M1092.67 1514.74H1198.47M1198.47 1514.74H1304.27M1304.27 1514.74H1410.08" stroke="url(#paint5_radial_102_132)" stroke-opacity="0.2"/>
</g>
<defs>
<radialGradient id="paint0_radial_102_132" cx="0" cy="0" r="1" gradientTransform="matrix(-0.926161 81.3762 -136.018 -1.66871 300.984 713.755)" gradientUnits="userSpaceOnUse">
<stop stop-color="white" stop-opacity="0.8"/>
<stop offset="1" stop-color="#05041F"/>
</radialGradient>
<radialGradient id="paint1_radial_102_132" cx="0" cy="0" r="1" gradientUnits="userSpaceOnUse" gradientTransform="translate(723.07 368.149) rotate(90) scale(86.3996 144.413)">
<stop stop-color="white" stop-opacity="0.8"/>
<stop offset="1" stop-color="#05041F"/>
</radialGradient>
<radialGradient id="paint2_radial_102_132" cx="0" cy="0" r="1" gradientTransform="matrix(-2.77797 83.3853 -139.39 -5.00568 616.676 1053.33)" gradientUnits="userSpaceOnUse">
<stop stop-color="white" stop-opacity="0.8"/>
<stop offset="1" stop-color="#05041F"/>
</radialGradient>
<radialGradient id="paint3_radial_102_132" cx="0" cy="0" r="1" gradientTransform="matrix(-0.925889 81.3763 -136.018 -1.66821 1042.54 827.278)" gradientUnits="userSpaceOnUse">
<stop stop-color="white" stop-opacity="0.8"/>
<stop offset="1" stop-color="#05041F"/>
</radialGradient>
<radialGradient id="paint4_radial_102_132" cx="0" cy="0" r="1" gradientUnits="userSpaceOnUse" gradientTransform="translate(723.144 711.744) rotate(90) scale(88.4088 147.77)">
<stop stop-color="white" stop-opacity="0.8"/>
<stop offset="1" stop-color="#05041F"/>
</radialGradient>
<radialGradient id="paint5_radial_102_132" cx="0" cy="0" r="1" gradientUnits="userSpaceOnUse" gradientTransform="translate(723.237 654.336) rotate(90) scale(609.82 561.955)">
<stop stop-color="white"/>
<stop offset="1" stop-color="white" stop-opacity="0"/>
</radialGradient>
<clipPath id="clip0_102_132">
<rect width="1440" height="1024" fill="white"/>
</clipPath>
</defs>
</svg>
